<svg width="798" height="271" xmlns="http://www.w3.org/2000/svg" xmlns:xlink="http://www.w3.org/1999/xlink" overflow="hidden"><defs><filter id="fx0" x="-10%" y="-10%" width="120%" height="120%" filterUnits="userSpaceOnUse" primitiveUnits="userSpaceOnUse"><feComponentTransfer color-interpolation-filters="sRGB"><feFuncR type="discrete" tableValues="0 0"/><feFuncG type="discrete" tableValues="0 0"/><feFuncB type="discrete" tableValues="0 0"/><feFuncA type="linear" slope="0.4" intercept="0"/></feComponentTransfer><feGaussianBlur stdDeviation="6.11111 6.11111"/></filter><clipPath id="clip1"><rect x="1628" y="765" width="798" height="271"/></clipPath><clipPath id="clip2"><rect x="-3" y="-3" width="678" height="210"/></clipPath><clipPath id="clip3"><rect x="0" y="0" width="670" height="203"/></clipPath></defs><g clip-path="url(#clip1)" transform="translate(-1628 -765)"><g clip-path="url(#clip2)" filter="url(#fx0)" transform="translate(1691 796)"><g clip-path="url(#clip3)"><path d="M539.812 69.4922C540.731 69.4922 541.602 69.6678 542.426 70.019 543.25 70.3703 543.966 70.8566 544.574 71.478 545.182 72.0994 545.661 72.8222 546.013 73.6462 546.364 74.4703 546.539 75.3551 546.539 76.3008 546.539 77.2194 546.364 78.084 546.013 78.8945 545.661 79.7051 545.182 80.4143 544.574 81.0222 543.966 81.6301 543.25 82.1097 542.426 82.4609 541.602 82.8122 540.731 82.9878 539.812 82.9878 538.866 82.9878 537.988 82.8122 537.178 82.4609 536.367 82.1097 535.658 81.6301 535.05 81.0222 534.442 80.4143 533.963 79.7051 533.611 78.8945 533.26 78.084 533.084 77.2194 533.084 76.3008 533.084 75.3551 533.26 74.4703 533.611 73.6462 533.963 72.8222 534.442 72.0994 535.05 71.478 535.658 70.8566 536.367 70.3703 537.178 70.019 537.988 69.6678 538.866 69.4922 539.812 69.4922ZM89.041 59.9277 86.9741 75.936C90.6216 75.6659 93.2761 74.8553 94.9377 73.5044 96.5994 72.1535 97.4302 70.3162 97.4302 67.9927 97.4302 67.02 97.2546 66.1487 96.9033 65.3787 96.5521 64.6086 96.0252 63.9129 95.3228 63.2915 94.6203 62.6701 93.7489 62.0892 92.7087 61.5488 91.6685 61.0085 90.446 60.4681 89.041 59.9277ZM33.4229 51.7007C34.9089 51.7007 36.2463 51.9506 37.4351 52.4504 38.6239 52.9503 39.7249 53.5785 40.738 54.335 41.7512 55.0915 42.6834 55.9155 43.5344 56.8071 44.3855 57.6987 45.2231 58.5228 46.0471 59.2793 46.8712 60.0358 47.6885 60.664 48.499 61.1638 49.3096 61.6637 50.1742 61.9136 51.0928 61.9136 52.7949 61.9136 54.0107 61.2922 54.7402 60.0493 55.4697 58.8065 55.8345 56.8071 55.8345 54.0513L62.3188 54.0513C62.3459 56.1047 62.1297 58.0027 61.6704 59.7454 61.2111 61.488 60.4951 62.9943 59.5225 64.2642 58.5498 65.534 57.3407 66.5269 55.8953 67.2429 54.4498 67.9589 52.7679 68.3169 50.8496 68.3169 49.3636 68.3169 48.0262 68.067 46.8374 67.5671 45.6486 67.0673 44.5476 66.4391 43.5344 65.6826 42.5212 64.9261 41.5891 64.1021 40.738 63.2104 39.887 62.3188 39.0494 61.4948 38.2253 60.7383 37.4013 59.9818 36.584 59.3536 35.7734 58.8538 34.9629 58.3539 34.0983 58.104 33.1797 58.104 31.5856 58.104 30.4036 58.7389 29.6336 60.0088 28.8635 61.2786 28.4785 63.278 28.4785 66.0068L21.9942 66.0068C21.9401 63.9535 22.1495 62.0554 22.6223 60.3127 23.0951 58.5701 23.8111 57.0571 24.7703 55.7737 25.7294 54.4903 26.9317 53.4906 28.3772 52.7747 29.8227 52.0587 31.5046 51.7007 33.4229 51.7007ZM362.054 46.9995C361.163 46.9995 360.257 47.1414 359.339 47.4251 358.42 47.7087 357.468 48.1816 356.482 48.8435 355.495 49.5055 354.455 50.3835 353.361 51.4778 352.267 52.572 351.098 53.9297 349.855 55.5508L349.855 75.2876C351.152 75.828 352.517 76.2535 353.949 76.5642 355.381 76.8749 356.786 77.0303 358.164 77.0303 361.973 77.0303 364.959 75.7402 367.12 73.1599 369.282 70.5797 370.362 66.6958 370.362 61.5083 370.362 59.3739 370.207 57.415 369.896 55.6318 369.586 53.8486 369.092 52.3221 368.417 51.0522 367.742 49.7824 366.877 48.7895 365.823 48.0735 364.77 47.3575 363.513 46.9995 362.054 46.9995ZM223.136 46.8374C221.029 46.8374 219.225 47.2494 217.726 48.0735 216.226 48.8975 214.997 49.9985 214.038 51.3765 213.079 52.7544 212.376 54.3552 211.93 56.179 211.485 58.0027 211.262 59.9142 211.262 61.9136 211.262 64.4263 211.539 66.6283 212.093 68.5195 212.646 70.4108 213.437 71.9846 214.463 73.241 215.49 74.4973 216.733 75.443 218.192 76.0779 219.651 76.7128 221.299 77.0303 223.136 77.0303 225.244 77.0303 227.047 76.6182 228.547 75.7942 230.046 74.9701 231.275 73.8691 232.235 72.4912 233.194 71.1133 233.896 69.5125 234.342 67.6887 234.788 65.865 235.011 63.9399 235.011 61.9136 235.011 59.4009 234.734 57.2057 234.18 55.3279 233.626 53.4501 232.836 51.8831 231.809 50.6267 230.782 49.3704 229.533 48.4247 228.06 47.7898 226.588 47.1549 224.946 46.8374 223.136 46.8374ZM314.217 46.4727C312.677 46.4727 311.272 46.7699 310.002 47.3643 308.733 47.9587 307.638 48.7962 306.72 49.877 305.801 50.9577 305.058 52.2546 304.491 53.7676 303.923 55.2806 303.572 56.9422 303.437 58.7524L324.835 58.7524C324.916 56.9422 324.741 55.2874 324.309 53.7878 323.876 52.2883 323.208 50.9982 322.302 49.9175 321.397 48.8368 320.269 47.9924 318.918 47.3845 317.568 46.7766 316 46.4727 314.217 46.4727ZM363.473 40.8394C365.796 40.8394 367.836 41.3257 369.592 42.2983 371.348 43.271 372.821 44.6422 374.01 46.4119 375.199 48.1816 376.09 50.316 376.685 52.8152 377.279 55.3144 377.576 58.104 377.576 61.1841 377.576 64.8045 377.07 67.9657 376.056 70.6675 375.043 73.3693 373.645 75.6118 371.862 77.395 370.079 79.1782 367.971 80.5156 365.54 81.4072 363.108 82.2988 360.474 82.7446 357.637 82.7446 356.34 82.7446 355.05 82.6771 353.766 82.542 352.483 82.4069 351.179 82.1772 349.855 81.853L349.855 98.8745 342.804 98.8745 342.804 41.5689 349.085 41.5689 349.531 48.3774C351.558 45.5946 353.719 43.6425 356.016 42.5212 358.312 41.4 360.798 40.8394 363.473 40.8394ZM314.541 40.8394C317.378 40.8394 319.891 41.2852 322.08 42.1768 324.268 43.0684 326.112 44.3315 327.612 45.9661 329.111 47.6007 330.246 49.5865 331.016 51.9236 331.786 54.2607 332.171 56.8747 332.171 59.7656 332.171 60.7653 332.157 61.6029 332.13 62.2783 332.103 62.9538 332.063 63.5887 332.009 64.1831L303.437 64.1831C303.437 68.3439 304.599 71.5388 306.922 73.7678 309.246 75.9968 312.596 77.1113 316.973 77.1113 318.162 77.1113 319.351 77.064 320.54 76.9695 321.728 76.8749 322.877 76.7466 323.984 76.5845 325.092 76.4224 326.153 76.24 327.166 76.0374 328.179 75.8347 329.118 75.6118 329.982 75.3687L329.982 81.1641C328.064 81.7044 325.896 82.1435 323.478 82.4812 321.06 82.8189 318.554 82.9878 315.96 82.9878 312.475 82.9878 309.476 82.515 306.963 81.5693 304.45 80.6237 302.39 79.2525 300.782 77.4558 299.175 75.6591 297.986 73.4571 297.216 70.8499 296.446 68.2426 296.061 65.2909 296.061 61.9946 296.061 59.1307 296.473 56.4221 297.297 53.8689 298.121 51.3157 299.323 49.0732 300.904 47.1414 302.485 45.2096 304.423 43.6763 306.72 42.5415 309.016 41.4067 311.624 40.8394 314.541 40.8394ZM269.96 40.8394C271.554 40.8394 273.324 40.9272 275.269 41.1028 277.214 41.2784 279.241 41.5824 281.348 42.0147L281.348 48.2964C279.133 47.756 277.032 47.3575 275.046 47.1008 273.06 46.8442 271.338 46.7158 269.879 46.7158 268.123 46.7158 266.643 46.8509 265.441 47.1211 264.239 47.3913 263.266 47.7628 262.523 48.2356 261.78 48.7084 261.247 49.2623 260.922 49.8972 260.598 50.5322 260.436 51.2144 260.436 51.9439 260.436 52.6733 260.578 53.3353 260.862 53.9297 261.145 54.5241 261.672 55.0982 262.442 55.6521 263.212 56.206 264.286 56.7598 265.664 57.3137 267.042 57.8676 268.839 58.4688 271.054 59.1172 273.459 59.8197 275.485 60.5559 277.133 61.3259 278.781 62.0959 280.119 62.9538 281.145 63.8994 282.172 64.8451 282.908 65.9123 283.354 67.1011 283.8 68.2899 284.023 69.6408 284.023 71.1538 284.023 72.5858 283.78 73.8691 283.293 75.0039 282.807 76.1387 282.145 77.1451 281.308 78.0232 280.47 78.9013 279.497 79.651 278.39 80.2725 277.282 80.8939 276.1 81.4072 274.844 81.8125 273.587 82.2178 272.297 82.515 270.973 82.7041 269.649 82.8932 268.352 82.9878 267.083 82.9878 264.327 82.9878 261.794 82.8662 259.484 82.623 257.174 82.3799 254.911 81.9881 252.695 81.4478L252.695 74.9634C255.073 75.6388 257.437 76.1522 259.788 76.5034 262.138 76.8547 264.475 77.0303 266.799 77.0303 270.176 77.0303 272.675 76.571 274.296 75.6523 275.917 74.7337 276.728 73.4233 276.728 71.7212 276.728 70.9917 276.6 70.3365 276.343 69.7556 276.086 69.1747 275.62 68.6208 274.945 68.094 274.269 67.5671 273.222 67.02 271.804 66.4526 270.385 65.8853 268.447 65.2368 265.988 64.5073 264.151 63.967 262.456 63.3523 260.902 62.6633 259.349 61.9744 258.004 61.1571 256.87 60.2114 255.735 59.2658 254.843 58.158 254.195 56.8882 253.546 55.6183 253.222 54.1188 253.222 52.3897 253.222 51.2549 253.486 50.012 254.012 48.6611 254.539 47.3102 255.438 46.0539 256.708 44.8921 257.977 43.7303 259.693 42.7644 261.854 41.9944 264.016 41.2244 266.718 40.8394 269.96 40.8394ZM223.542 40.8394C226.459 40.8394 229.073 41.2919 231.384 42.197 233.694 43.1021 235.652 44.426 237.26 46.1687 238.868 47.9114 240.097 50.0796 240.948 52.6733 241.799 55.2671 242.225 58.2391 242.225 61.5894 242.225 64.7505 241.779 67.6482 240.887 70.2825 239.996 72.9167 238.712 75.1728 237.037 77.0505 235.362 78.9283 233.322 80.3873 230.917 81.4275 228.513 82.4677 225.784 82.9878 222.731 82.9878 219.813 82.9878 217.199 82.5352 214.889 81.6301 212.579 80.725 210.62 79.3944 209.012 77.6382 207.405 75.882 206.176 73.707 205.324 71.1133 204.473 68.5195 204.048 65.534 204.048 62.1567 204.048 58.9956 204.494 56.1114 205.385 53.5042 206.277 50.8969 207.56 48.6544 209.235 46.7766 210.91 44.8988 212.95 43.4399 215.355 42.3997 217.76 41.3595 220.488 40.8394 223.542 40.8394ZM86.4878 35.4492C83.1105 35.7464 80.6451 36.5367 79.0916 37.8201 77.538 39.1034 76.7612 40.7448 76.7612 42.7441 76.7612 44.6084 77.4029 46.1417 78.6863 47.344 79.9697 48.5463 81.8812 49.6473 84.4209 50.647ZM475.805 29.2891 514.468 29.2891 514.468 35.4492 498.784 35.4492 498.784 82.2583 491.489 82.2583 491.489 35.4492 475.805 35.4492ZM163.384 29.2891 190.862 29.2891 190.862 66.0879C190.862 68.3574 190.524 70.5121 189.849 72.552 189.173 74.5919 188.146 76.3683 186.769 77.8813 185.391 79.3944 183.661 80.5967 181.581 81.4883 179.501 82.3799 177.055 82.8257 174.246 82.8257 173.192 82.8257 172.118 82.7514 171.024 82.6028 169.929 82.4542 168.876 82.2515 167.863 81.9949 166.849 81.7382 165.897 81.4275 165.005 81.0627 164.114 80.698 163.344 80.2995 162.695 79.8672L162.695 72.6128C164.37 73.8286 166.228 74.7878 168.268 75.4902 170.308 76.1927 172.327 76.5439 174.327 76.5439 177.272 76.5439 179.541 75.6456 181.135 73.8489 182.729 72.0522 183.526 69.4652 183.526 66.0879L183.526 35.5303 163.384 35.5303ZM387.804 24.9932 394.855 24.9932 394.855 41.5689 394.612 47.9722C395.72 46.6483 396.807 45.5338 397.875 44.6287 398.942 43.7236 400.009 42.9873 401.076 42.4199 402.144 41.8525 403.231 41.4473 404.339 41.2041 405.447 40.9609 406.595 40.8394 407.784 40.8394 411.836 40.8394 414.971 42.0754 417.186 44.5476 419.401 47.0198 420.509 50.7415 420.509 55.7129L420.509 82.2583 413.457 82.2583 413.457 56.2803C413.457 53.1462 412.87 50.8023 411.695 49.2488 410.519 47.6952 408.837 46.9185 406.649 46.9185 405.703 46.9185 404.818 47.0468 403.994 47.3035 403.17 47.5601 402.312 48.0059 401.421 48.6409 400.529 49.2758 399.557 50.1336 398.503 51.2144 397.449 52.2951 396.233 53.646 394.855 55.2671L394.855 82.2583 387.804 82.2583ZM88.3115 21.6699 94.188 21.6699 93.1343 29.5728C94.5392 29.7079 95.9509 29.8835 97.3694 30.0996 98.7878 30.3158 100.105 30.5724 101.321 30.8696L101.321 37.1108C99.8348 36.7326 98.3353 36.4084 96.8223 36.1382 95.3092 35.868 93.8232 35.6654 92.3643 35.5303L90.0542 52.876C91.8644 53.5785 93.6611 54.3417 95.4443 55.1658 97.2275 55.9898 98.8284 56.9625 100.247 58.0837 101.665 59.205 102.814 60.5356 103.692 62.0757 104.57 63.6157 105.009 65.453 105.009 67.5874 105.009 69.8569 104.549 71.8698 103.631 73.626 102.712 75.3822 101.429 76.8682 99.7808 78.084 98.1327 79.2998 96.1468 80.2522 93.8232 80.9412 91.4997 81.6301 88.9464 82.0422 86.1636 82.1772L84.8262 91.8228 78.9092 91.8228 80.2466 82.1772C78.0581 82.0151 75.9709 81.7787 73.9851 81.468 71.9993 81.1573 70.2769 80.8128 68.8179 80.4346L68.8179 73.707C70.52 74.3014 72.3775 74.7878 74.3904 75.166 76.4032 75.5443 78.639 75.8009 81.0977 75.936L83.4888 57.6987C81.7326 57.0233 80.0034 56.2938 78.3013 55.5103 76.5991 54.7267 75.0794 53.7878 73.7419 52.6936 72.4045 51.5994 71.3171 50.3092 70.4795 48.8232 69.6419 47.3372 69.2232 45.5676 69.2232 43.5142 69.2232 41.839 69.5744 40.1842 70.2769 38.5496 70.9793 36.915 72.0736 35.4425 73.5596 34.1321 75.0456 32.8217 76.9233 31.741 79.1929 30.8899 81.4624 30.0388 84.1642 29.5322 87.2983 29.3701Z" stroke="#767171" stroke-width="3" stroke-linejoin="round" stroke-miterlimit="10" fill-rule="evenodd"/><path d="M614.189 24.9932 620.917 24.9932 648.718 90.9717 641.991 90.9717Z" stroke="#767171" stroke-width="3" stroke-linejoin="round" stroke-miterlimit="10" fill-rule="evenodd"/><path d="M381.878 162.737C380.121 162.737 378.608 162.913 377.339 163.264 376.069 163.615 375.029 164.115 374.218 164.764 373.407 165.412 372.806 166.189 372.415 167.094 372.023 167.999 371.827 169.019 371.827 170.154 371.827 170.937 371.948 171.687 372.192 172.403 372.435 173.119 372.827 173.754 373.367 174.308 373.907 174.862 374.61 175.301 375.474 175.625 376.339 175.949 377.393 176.111 378.635 176.111 380.257 176.111 382.114 175.618 384.208 174.632 386.302 173.646 388.511 172.086 390.834 169.951L390.834 162.737ZM274.464 140.569 281.516 140.569 281.516 166.587C281.516 172.829 283.866 175.949 288.568 175.949 289.432 175.949 290.277 175.821 291.101 175.564 291.925 175.308 292.789 174.862 293.694 174.227 294.599 173.592 295.572 172.734 296.612 171.653 297.652 170.573 298.821 169.208 300.118 167.56L300.118 140.569 307.17 140.569 307.17 181.258 300.847 181.258 300.604 174.693C299.388 176.098 298.233 177.266 297.139 178.198 296.045 179.131 294.957 179.88 293.877 180.448 292.796 181.015 291.708 181.414 290.614 181.643 289.52 181.873 288.365 181.988 287.149 181.988 282.961 181.988 279.8 180.758 277.666 178.3 275.531 175.841 274.464 172.126 274.464 167.155ZM340.89 140.001C342.997 140.001 344.97 140.15 346.807 140.447 348.644 140.744 350.4 141.231 352.075 141.906L352.075 148.634C350.319 147.715 348.529 147.046 346.706 146.628 344.882 146.209 342.997 146 341.052 146 339.242 146 337.533 146.344 335.925 147.033 334.318 147.722 332.906 148.715 331.69 150.012 330.474 151.309 329.515 152.889 328.813 154.753 328.11 156.618 327.759 158.725 327.759 161.076 327.759 165.993 328.955 169.674 331.346 172.119 333.737 174.565 337.053 175.787 341.295 175.787 343.213 175.787 345.071 175.571 346.868 175.139 348.664 174.706 350.4 174.058 352.075 173.193L352.075 179.759C350.238 180.461 348.354 180.981 346.422 181.319 344.49 181.657 342.497 181.826 340.444 181.826 334.014 181.826 329.063 180.083 325.591 176.598 322.119 173.112 320.383 168.019 320.383 161.319 320.383 158.104 320.883 155.186 321.883 152.565 322.882 149.944 324.287 147.702 326.097 145.837 327.908 143.973 330.069 142.534 332.582 141.521 335.094 140.508 337.864 140.001 340.89 140.001ZM428.62 139.839C430.214 139.839 431.984 139.927 433.929 140.103 435.875 140.278 437.901 140.582 440.009 141.015L440.009 147.296C437.793 146.756 435.692 146.358 433.707 146.101 431.721 145.844 429.998 145.716 428.539 145.716 426.783 145.716 425.304 145.851 424.102 146.121 422.899 146.391 421.927 146.763 421.184 147.236 420.441 147.708 419.907 148.262 419.583 148.897 419.259 149.532 419.096 150.214 419.096 150.944 419.096 151.673 419.238 152.335 419.522 152.93 419.806 153.524 420.333 154.098 421.103 154.652 421.873 155.206 422.947 155.76 424.324 156.314 425.702 156.868 427.499 157.469 429.715 158.117 432.119 158.82 434.146 159.556 435.794 160.326 437.442 161.096 438.779 161.954 439.806 162.899 440.833 163.845 441.569 164.912 442.015 166.101 442.46 167.29 442.683 168.641 442.683 170.154 442.683 171.586 442.44 172.869 441.954 174.004 441.468 175.139 440.806 176.145 439.968 177.023 439.13 177.901 438.158 178.651 437.05 179.272 435.942 179.894 434.76 180.407 433.504 180.812 432.248 181.218 430.957 181.515 429.634 181.704 428.31 181.893 427.013 181.988 425.743 181.988 422.987 181.988 420.454 181.866 418.144 181.623 415.834 181.38 413.571 180.988 411.356 180.448L411.356 173.963C413.733 174.639 416.097 175.152 418.448 175.503 420.799 175.855 423.136 176.03 425.459 176.03 428.836 176.03 431.336 175.571 432.957 174.652 434.578 173.734 435.388 172.423 435.388 170.721 435.388 169.992 435.26 169.337 435.003 168.756 434.747 168.175 434.281 167.621 433.605 167.094 432.93 166.567 431.883 166.02 430.464 165.453 429.046 164.885 427.107 164.237 424.649 163.507 422.811 162.967 421.116 162.352 419.562 161.663 418.009 160.974 416.665 160.157 415.53 159.211 414.395 158.266 413.504 157.158 412.855 155.888 412.207 154.618 411.883 153.119 411.883 151.39 411.883 150.255 412.146 149.012 412.673 147.661 413.2 146.31 414.098 145.054 415.368 143.892 416.638 142.73 418.353 141.764 420.515 140.994 422.676 140.224 425.378 139.839 428.62 139.839ZM382.04 139.839C384.498 139.839 386.714 140.11 388.686 140.65 390.659 141.19 392.327 142.014 393.691 143.122 395.056 144.23 396.103 145.621 396.832 147.296 397.562 148.972 397.927 150.944 397.927 153.213L397.927 181.258 391.604 181.258 391.442 175.787C389.227 177.976 386.977 179.556 384.694 180.529 382.411 181.501 380.013 181.988 377.501 181.988 375.177 181.988 373.191 181.691 371.543 181.096 369.895 180.502 368.537 179.684 367.47 178.644 366.403 177.604 365.619 176.382 365.12 174.977 364.62 173.572 364.37 172.045 364.37 170.397 364.37 166.317 365.89 163.122 368.929 160.812 371.969 158.502 376.461 157.347 382.405 157.347L390.834 157.347 390.834 153.781C390.834 151.376 390.064 149.451 388.524 148.006 386.984 146.56 384.634 145.837 381.472 145.837 379.176 145.837 376.913 146.094 374.684 146.607 372.455 147.121 370.152 147.85 367.774 148.796L367.774 142.433C368.666 142.109 369.659 141.791 370.753 141.481 371.847 141.17 373.002 140.893 374.218 140.65 375.434 140.407 376.704 140.211 378.028 140.062 379.351 139.914 380.689 139.839 382.04 139.839ZM232.423 128.289 239.758 128.289 239.758 175.098 262.899 175.098 262.899 181.258 232.423 181.258Z" stroke="#767171" stroke-width="3" stroke-linejoin="round" stroke-miterlimit="10" fill-rule="evenodd"/></g></g><path d="M2230.81 851.742C2231.73 851.742 2232.6 851.918 2233.43 852.269 2234.25 852.62 2234.97 853.107 2235.57 853.728 2236.18 854.349 2236.66 855.072 2237.01 855.896 2237.36 856.72 2237.54 857.605 2237.54 858.551 2237.54 859.469 2237.36 860.334 2237.01 861.145 2236.66 861.955 2236.18 862.664 2235.57 863.272 2234.97 863.88 2234.25 864.36 2233.43 864.711 2232.6 865.062 2231.73 865.238 2230.81 865.238 2229.87 865.238 2228.99 865.062 2228.18 864.711 2227.37 864.36 2226.66 863.88 2226.05 863.272 2225.44 862.664 2224.96 861.955 2224.61 861.145 2224.26 860.334 2224.08 859.469 2224.08 858.551 2224.08 857.605 2224.26 856.72 2224.61 855.896 2224.96 855.072 2225.44 854.349 2226.05 853.728 2226.66 853.107 2227.37 852.62 2228.18 852.269 2228.99 851.918 2229.87 851.742 2230.81 851.742ZM1780.04 842.178 1777.97 858.186C1781.62 857.916 1784.28 857.105 1785.94 855.754 1787.6 854.404 1788.43 852.566 1788.43 850.243 1788.43 849.27 1788.25 848.399 1787.9 847.629 1787.55 846.859 1787.03 846.163 1786.32 845.542 1785.62 844.92 1784.75 844.339 1783.71 843.799 1782.67 843.258 1781.45 842.718 1780.04 842.178ZM1724.42 833.951C1725.91 833.951 1727.25 834.201 1728.44 834.7 1729.62 835.2 1730.72 835.828 1731.74 836.585 1732.75 837.341 1733.68 838.166 1734.53 839.057 1735.39 839.949 1736.22 840.773 1737.05 841.529 1737.87 842.286 1738.69 842.914 1739.5 843.414 1740.31 843.914 1741.17 844.164 1742.09 844.164 1743.79 844.164 1745.01 843.542 1745.74 842.299 1746.47 841.056 1746.83 839.057 1746.83 836.301L1753.32 836.301C1753.35 838.355 1753.13 840.253 1752.67 841.995 1752.21 843.738 1751.5 845.244 1750.52 846.514 1749.55 847.784 1748.34 848.777 1746.9 849.493 1745.45 850.209 1743.77 850.567 1741.85 850.567 1740.36 850.567 1739.03 850.317 1737.84 849.817 1736.65 849.317 1735.55 848.689 1734.53 847.933 1733.52 847.176 1732.59 846.352 1731.74 845.46 1730.89 844.569 1730.05 843.745 1729.23 842.988 1728.4 842.232 1727.58 841.604 1726.77 841.104 1725.96 840.604 1725.1 840.354 1724.18 840.354 1722.59 840.354 1721.4 840.989 1720.63 842.259 1719.86 843.529 1719.48 845.528 1719.48 848.257L1712.99 848.257C1712.94 846.203 1713.15 844.305 1713.62 842.563 1714.1 840.82 1714.81 839.307 1715.77 838.024 1716.73 836.74 1717.93 835.741 1719.38 835.025 1720.82 834.309 1722.5 833.951 1724.42 833.951ZM2053.05 829.25C2052.16 829.25 2051.26 829.391 2050.34 829.675 2049.42 829.959 2048.47 830.432 2047.48 831.094 2046.5 831.755 2045.46 832.634 2044.36 833.728 2043.27 834.822 2042.1 836.18 2040.86 837.801L2040.86 857.538C2042.15 858.078 2043.52 858.503 2044.95 858.814 2046.38 859.125 2047.79 859.28 2049.16 859.28 2052.97 859.28 2055.96 857.99 2058.12 855.41 2060.28 852.83 2061.36 848.946 2061.36 843.758 2061.36 841.624 2061.21 839.665 2060.9 837.882 2060.59 836.099 2060.09 834.572 2059.42 833.302 2058.74 832.032 2057.88 831.039 2056.82 830.323 2055.77 829.607 2054.51 829.25 2053.05 829.25ZM1914.14 829.087C1912.03 829.087 1910.23 829.499 1908.73 830.323 1907.23 831.148 1906 832.249 1905.04 833.626 1904.08 835.004 1903.38 836.605 1902.93 838.429 1902.48 840.253 1902.26 842.164 1902.26 844.164 1902.26 846.676 1902.54 848.878 1903.09 850.77 1903.65 852.661 1904.44 854.235 1905.46 855.491 1906.49 856.747 1907.73 857.693 1909.19 858.328 1910.65 858.963 1912.3 859.28 1914.14 859.28 1916.24 859.28 1918.05 858.868 1919.55 858.044 1921.05 857.22 1922.28 856.119 1923.23 854.741 1924.19 853.363 1924.9 851.762 1925.34 849.939 1925.79 848.115 1926.01 846.19 1926.01 844.164 1926.01 841.651 1925.73 839.456 1925.18 837.578 1924.63 835.7 1923.84 834.133 1922.81 832.877 1921.78 831.62 1920.53 830.675 1919.06 830.04 1917.59 829.405 1915.95 829.087 1914.14 829.087ZM2005.22 828.723C2003.68 828.723 2002.27 829.02 2001 829.614 1999.73 830.209 1998.64 831.046 1997.72 832.127 1996.8 833.208 1996.06 834.505 1995.49 836.018 1994.92 837.531 1994.57 839.192 1994.44 841.002L2015.84 841.002C2015.92 839.192 2015.74 837.537 2015.31 836.038 2014.88 834.538 2014.21 833.248 2013.3 832.167 2012.4 831.087 2011.27 830.242 2009.92 829.635 2008.57 829.027 2007 828.723 2005.22 828.723ZM2054.47 823.089C2056.8 823.089 2058.84 823.576 2060.59 824.548 2062.35 825.521 2063.82 826.892 2065.01 828.662 2066.2 830.432 2067.09 832.566 2067.68 835.065 2068.28 837.564 2068.58 840.354 2068.58 843.434 2068.58 847.055 2068.07 850.216 2067.06 852.917 2066.04 855.619 2064.65 857.862 2062.86 859.645 2061.08 861.428 2058.97 862.766 2056.54 863.657 2054.11 864.549 2051.47 864.995 2048.64 864.995 2047.34 864.995 2046.05 864.927 2044.77 864.792 2043.48 864.657 2042.18 864.427 2040.86 864.103L2040.86 881.125 2033.8 881.125 2033.8 823.819 2040.09 823.819 2040.53 830.627C2042.56 827.845 2044.72 825.893 2047.02 824.771 2049.31 823.65 2051.8 823.089 2054.47 823.089ZM2005.54 823.089C2008.38 823.089 2010.89 823.535 2013.08 824.427 2015.27 825.318 2017.11 826.581 2018.61 828.216 2020.11 829.851 2021.25 831.836 2022.02 834.174 2022.79 836.511 2023.17 839.125 2023.17 842.016 2023.17 843.015 2023.16 843.853 2023.13 844.528 2023.1 845.204 2023.06 845.839 2023.01 846.433L1994.44 846.433C1994.44 850.594 1995.6 853.789 1997.92 856.018 2000.25 858.247 2003.6 859.361 2007.97 859.361 2009.16 859.361 2010.35 859.314 2011.54 859.219 2012.73 859.125 2013.88 858.997 2014.98 858.834 2016.09 858.672 2017.15 858.49 2018.17 858.287 2019.18 858.085 2020.12 857.862 2020.98 857.619L2020.98 863.414C2019.06 863.954 2016.9 864.393 2014.48 864.731 2012.06 865.069 2009.55 865.238 2006.96 865.238 2003.47 865.238 2000.48 864.765 1997.96 863.819 1995.45 862.874 1993.39 861.503 1991.78 859.706 1990.17 857.909 1988.99 855.707 1988.22 853.1 1987.45 850.493 1987.06 847.541 1987.06 844.245 1987.06 841.381 1987.47 838.672 1988.3 836.119 1989.12 833.566 1990.32 831.323 1991.9 829.391 1993.48 827.46 1995.42 825.926 1997.72 824.792 2000.02 823.657 2002.62 823.089 2005.54 823.089ZM1960.96 823.089C1962.55 823.089 1964.32 823.177 1966.27 823.353 1968.21 823.528 1970.24 823.832 1972.35 824.265L1972.35 830.546C1970.13 830.006 1968.03 829.607 1966.05 829.351 1964.06 829.094 1962.34 828.966 1960.88 828.966 1959.12 828.966 1957.64 829.101 1956.44 829.371 1955.24 829.641 1954.27 830.013 1953.52 830.486 1952.78 830.958 1952.25 831.512 1951.92 832.147 1951.6 832.782 1951.44 833.464 1951.44 834.194 1951.44 834.923 1951.58 835.585 1951.86 836.18 1952.15 836.774 1952.67 837.348 1953.44 837.902 1954.21 838.456 1955.29 839.01 1956.66 839.564 1958.04 840.118 1959.84 840.719 1962.05 841.367 1964.46 842.07 1966.49 842.806 1968.13 843.576 1969.78 844.346 1971.12 845.204 1972.15 846.149 1973.17 847.095 1973.91 848.162 1974.35 849.351 1974.8 850.54 1975.02 851.891 1975.02 853.404 1975.02 854.836 1974.78 856.119 1974.29 857.254 1973.81 858.389 1973.15 859.395 1972.31 860.273 1971.47 861.151 1970.5 861.901 1969.39 862.522 1968.28 863.144 1967.1 863.657 1965.84 864.062 1964.59 864.468 1963.3 864.765 1961.97 864.954 1960.65 865.143 1959.35 865.238 1958.08 865.238 1955.33 865.238 1952.79 865.116 1950.48 864.873 1948.17 864.63 1945.91 864.238 1943.7 863.698L1943.7 857.213C1946.07 857.889 1948.44 858.402 1950.79 858.753 1953.14 859.105 1955.48 859.28 1957.8 859.28 1961.18 859.28 1963.68 858.821 1965.3 857.902 1966.92 856.984 1967.73 855.673 1967.73 853.971 1967.73 853.242 1967.6 852.586 1967.34 852.006 1967.09 851.425 1966.62 850.871 1965.94 850.344 1965.27 849.817 1964.22 849.27 1962.8 848.703 1961.39 848.135 1959.45 847.487 1956.99 846.757 1955.15 846.217 1953.46 845.602 1951.9 844.913 1950.35 844.224 1949 843.407 1947.87 842.461 1946.73 841.516 1945.84 840.408 1945.19 839.138 1944.55 837.868 1944.22 836.369 1944.22 834.64 1944.22 833.505 1944.49 832.262 1945.01 830.911 1945.54 829.56 1946.44 828.304 1947.71 827.142 1948.98 825.98 1950.69 825.014 1952.85 824.244 1955.02 823.474 1957.72 823.089 1960.96 823.089ZM1914.54 823.089C1917.46 823.089 1920.07 823.542 1922.38 824.447 1924.69 825.352 1926.65 826.676 1928.26 828.419 1929.87 830.161 1931.1 832.33 1931.95 834.923 1932.8 837.517 1933.22 840.489 1933.22 843.839 1933.22 847 1932.78 849.898 1931.89 852.532 1931 855.167 1929.71 857.423 1928.04 859.301 1926.36 861.178 1924.32 862.637 1921.92 863.677 1919.51 864.718 1916.78 865.238 1913.73 865.238 1910.81 865.238 1908.2 864.785 1905.89 863.88 1903.58 862.975 1901.62 861.644 1900.01 859.888 1898.4 858.132 1897.18 855.957 1896.32 853.363 1895.47 850.77 1895.05 847.784 1895.05 844.407 1895.05 841.246 1895.49 838.361 1896.39 835.754 1897.28 833.147 1898.56 830.904 1900.24 829.027 1901.91 827.149 1903.95 825.69 1906.35 824.65 1908.76 823.609 1911.49 823.089 1914.54 823.089ZM1777.49 817.699C1774.11 817.996 1771.65 818.787 1770.09 820.07 1768.54 821.353 1767.76 822.995 1767.76 824.994 1767.76 826.858 1768.4 828.392 1769.69 829.594 1770.97 830.796 1772.88 831.897 1775.42 832.897ZM2166.8 811.539 2205.47 811.539 2205.47 817.699 2189.78 817.699 2189.78 864.508 2182.49 864.508 2182.49 817.699 2166.8 817.699ZM1854.38 811.539 1881.86 811.539 1881.86 848.338C1881.86 850.607 1881.52 852.762 1880.85 854.802 1880.17 856.842 1879.15 858.618 1877.77 860.131 1876.39 861.644 1874.66 862.847 1872.58 863.738 1870.5 864.63 1868.06 865.076 1865.25 865.076 1864.19 865.076 1863.12 865.001 1862.02 864.853 1860.93 864.704 1859.88 864.502 1858.86 864.245 1857.85 863.988 1856.9 863.677 1856.01 863.313 1855.11 862.948 1854.34 862.549 1853.7 862.117L1853.7 854.863C1855.37 856.079 1857.23 857.038 1859.27 857.74 1861.31 858.443 1863.33 858.794 1865.33 858.794 1868.27 858.794 1870.54 857.896 1872.14 856.099 1873.73 854.302 1874.53 851.715 1874.53 848.338L1874.53 817.78 1854.38 817.78ZM2078.8 807.243 2085.86 807.243 2085.86 823.819 2085.61 830.222C2086.72 828.898 2087.81 827.784 2088.87 826.879 2089.94 825.974 2091.01 825.237 2092.08 824.67 2093.14 824.103 2094.23 823.697 2095.34 823.454 2096.45 823.211 2097.59 823.089 2098.78 823.089 2102.84 823.089 2105.97 824.325 2108.19 826.798 2110.4 829.27 2111.51 832.992 2111.51 837.963L2111.51 864.508 2104.46 864.508 2104.46 838.53C2104.46 835.396 2103.87 833.052 2102.69 831.499 2101.52 829.945 2099.84 829.168 2097.65 829.168 2096.7 829.168 2095.82 829.297 2094.99 829.553 2094.17 829.81 2093.31 830.256 2092.42 830.891 2091.53 831.526 2090.56 832.384 2089.5 833.464 2088.45 834.545 2087.23 835.896 2085.86 837.517L2085.86 864.508 2078.8 864.508ZM1779.31 803.92 1785.19 803.92 1784.13 811.823C1785.54 811.958 1786.95 812.133 1788.37 812.35 1789.79 812.566 1791.1 812.822 1792.32 813.12L1792.32 819.361C1790.83 818.983 1789.34 818.658 1787.82 818.388 1786.31 818.118 1784.82 817.915 1783.36 817.78L1781.05 835.126C1782.86 835.828 1784.66 836.592 1786.44 837.416 1788.23 838.24 1789.83 839.212 1791.25 840.334 1792.67 841.455 1793.81 842.786 1794.69 844.326 1795.57 845.866 1796.01 847.703 1796.01 849.837 1796.01 852.107 1795.55 854.12 1794.63 855.876 1793.71 857.632 1792.43 859.118 1790.78 860.334 1789.13 861.55 1787.15 862.502 1784.82 863.191 1782.5 863.88 1779.95 864.292 1777.16 864.427L1775.83 874.073 1769.91 874.073 1771.25 864.427C1769.06 864.265 1766.97 864.029 1764.99 863.718 1763 863.407 1761.28 863.063 1759.82 862.685L1759.82 855.957C1761.52 856.551 1763.38 857.038 1765.39 857.416 1767.4 857.794 1769.64 858.051 1772.1 858.186L1774.49 839.949C1772.73 839.273 1771 838.544 1769.3 837.76 1767.6 836.977 1766.08 836.038 1764.74 834.944 1763.4 833.849 1762.32 832.559 1761.48 831.073 1760.64 829.587 1760.22 827.818 1760.22 825.764 1760.22 824.089 1760.57 822.434 1761.28 820.8 1761.98 819.165 1763.07 817.692 1764.56 816.382 1766.05 815.072 1767.92 813.991 1770.19 813.14 1772.46 812.289 1775.16 811.782 1778.3 811.62Z" stroke="#767171" stroke-width="3" stroke-linejoin="round" stroke-miterlimit="10" fill-rule="evenodd"/><text fill="#000000" fill-opacity="0" font-family="Arial,Arial_MSFontService,sans-serif" font-size="77.2046" x="1712.99" y="871.474">~$ Joseph T. </text><path d="M2305.19 807.243 2311.92 807.243 2339.72 873.222 2332.99 873.222Z" stroke="#767171" stroke-width="3" stroke-linejoin="round" stroke-miterlimit="10" fill-rule="evenodd"/><text fill="#000000" fill-opacity="0" font-family="Arial,Arial_MSFontService,sans-serif" font-size="65.9785" x="2305.19" y="864.974">\</text><path d="M2072.88 944.987C2071.12 944.987 2069.61 945.163 2068.34 945.514 2067.07 945.865 2066.03 946.365 2065.22 947.014 2064.41 947.662 2063.81 948.439 2063.41 949.344 2063.02 950.249 2062.83 951.269 2062.83 952.404 2062.83 953.187 2062.95 953.937 2063.19 954.653 2063.43 955.369 2063.83 956.004 2064.37 956.558 2064.91 957.112 2065.61 957.551 2066.47 957.875 2067.34 958.199 2068.39 958.361 2069.64 958.361 2071.26 958.361 2073.11 957.868 2075.21 956.882 2077.3 955.896 2079.51 954.336 2081.83 952.201L2081.83 944.987ZM1965.46 922.819 1972.52 922.819 1972.52 948.837C1972.52 955.079 1974.87 958.199 1979.57 958.199 1980.43 958.199 1981.28 958.071 1982.1 957.814 1982.92 957.558 1983.79 957.112 1984.69 956.477 1985.6 955.842 1986.57 954.984 1987.61 953.903 1988.65 952.823 1989.82 951.458 1991.12 949.81L1991.12 922.819 1998.17 922.819 1998.17 963.508 1991.85 963.508 1991.6 956.943C1990.39 958.348 1989.23 959.516 1988.14 960.448 1987.04 961.381 1985.96 962.13 1984.88 962.698 1983.8 963.265 1982.71 963.664 1981.61 963.893 1980.52 964.123 1979.36 964.238 1978.15 964.238 1973.96 964.238 1970.8 963.008 1968.67 960.55 1966.53 958.091 1965.46 954.376 1965.46 949.405ZM2031.89 922.251C2034 922.251 2035.97 922.4 2037.81 922.697 2039.64 922.994 2041.4 923.481 2043.08 924.156L2043.08 930.884C2041.32 929.965 2039.53 929.296 2037.71 928.878 2035.88 928.459 2034 928.25 2032.05 928.25 2030.24 928.25 2028.53 928.594 2026.93 929.283 2025.32 929.972 2023.91 930.965 2022.69 932.262 2021.47 933.559 2020.52 935.139 2019.81 937.003 2019.11 938.868 2018.76 940.975 2018.76 943.326 2018.76 948.243 2019.95 951.924 2022.35 954.369 2024.74 956.815 2028.05 958.037 2032.3 958.037 2034.21 958.037 2036.07 957.821 2037.87 957.389 2039.66 956.956 2041.4 956.308 2043.08 955.443L2043.08 962.009C2041.24 962.711 2039.35 963.231 2037.42 963.569 2035.49 963.907 2033.5 964.076 2031.44 964.076 2025.01 964.076 2020.06 962.333 2016.59 958.848 2013.12 955.362 2011.38 950.269 2011.38 943.569 2011.38 940.354 2011.88 937.436 2012.88 934.815 2013.88 932.194 2015.29 929.952 2017.1 928.087 2018.91 926.223 2021.07 924.784 2023.58 923.771 2026.09 922.758 2028.86 922.251 2031.89 922.251ZM2119.62 922.089C2121.21 922.089 2122.98 922.177 2124.93 922.353 2126.87 922.528 2128.9 922.832 2131.01 923.265L2131.01 929.546C2128.79 929.006 2126.69 928.607 2124.71 928.351 2122.72 928.094 2121 927.966 2119.54 927.966 2117.78 927.966 2116.3 928.101 2115.1 928.371 2113.9 928.641 2112.93 929.013 2112.18 929.486 2111.44 929.958 2110.91 930.512 2110.58 931.147 2110.26 931.782 2110.1 932.464 2110.1 933.194 2110.1 933.923 2110.24 934.585 2110.52 935.18 2110.81 935.774 2111.33 936.348 2112.1 936.902 2112.87 937.456 2113.95 938.01 2115.32 938.564 2116.7 939.118 2118.5 939.719 2120.71 940.367 2123.12 941.07 2125.15 941.806 2126.79 942.576 2128.44 943.346 2129.78 944.204 2130.81 945.149 2131.83 946.095 2132.57 947.162 2133.01 948.351 2133.46 949.54 2133.68 950.891 2133.68 952.404 2133.68 953.836 2133.44 955.119 2132.95 956.254 2132.47 957.389 2131.81 958.395 2130.97 959.273 2130.13 960.151 2129.16 960.901 2128.05 961.522 2126.94 962.144 2125.76 962.657 2124.5 963.062 2123.25 963.468 2121.96 963.765 2120.63 963.954 2119.31 964.143 2118.01 964.238 2116.74 964.238 2113.99 964.238 2111.45 964.116 2109.14 963.873 2106.83 963.63 2104.57 963.238 2102.36 962.698L2102.36 956.213C2104.73 956.889 2107.1 957.402 2109.45 957.753 2111.8 958.105 2114.14 958.28 2116.46 958.28 2119.84 958.28 2122.34 957.821 2123.96 956.902 2125.58 955.984 2126.39 954.673 2126.39 952.971 2126.39 952.242 2126.26 951.586 2126 951.006 2125.75 950.425 2125.28 949.871 2124.61 949.344 2123.93 948.817 2122.88 948.27 2121.46 947.703 2120.05 947.135 2118.11 946.487 2115.65 945.757 2113.81 945.217 2112.12 944.602 2110.56 943.913 2109.01 943.224 2107.66 942.407 2106.53 941.461 2105.4 940.516 2104.5 939.408 2103.86 938.138 2103.21 936.868 2102.88 935.369 2102.88 933.64 2102.88 932.505 2103.15 931.262 2103.67 929.911 2104.2 928.56 2105.1 927.304 2106.37 926.142 2107.64 924.98 2109.35 924.014 2111.51 923.244 2113.68 922.474 2116.38 922.089 2119.62 922.089ZM2073.04 922.089C2075.5 922.089 2077.71 922.36 2079.69 922.9 2081.66 923.44 2083.33 924.264 2084.69 925.372 2086.06 926.48 2087.1 927.871 2087.83 929.546 2088.56 931.221 2088.93 933.194 2088.93 935.463L2088.93 963.508 2082.6 963.508 2082.44 958.037C2080.23 960.226 2077.98 961.806 2075.69 962.779 2073.41 963.751 2071.01 964.238 2068.5 964.238 2066.18 964.238 2064.19 963.941 2062.54 963.346 2060.9 962.752 2059.54 961.935 2058.47 960.894 2057.4 959.854 2056.62 958.632 2056.12 957.227 2055.62 955.822 2055.37 954.295 2055.37 952.647 2055.37 948.567 2056.89 945.372 2059.93 943.062 2062.97 940.752 2067.46 939.597 2073.4 939.597L2081.83 939.597 2081.83 936.031C2081.83 933.626 2081.06 931.701 2079.52 930.256 2077.98 928.81 2075.63 928.087 2072.47 928.087 2070.18 928.087 2067.91 928.344 2065.68 928.857 2063.46 929.371 2061.15 930.1 2058.77 931.046L2058.77 924.683C2059.67 924.359 2060.66 924.041 2061.75 923.731 2062.85 923.42 2064 923.143 2065.22 922.9 2066.43 922.657 2067.7 922.461 2069.03 922.312 2070.35 922.164 2071.69 922.089 2073.04 922.089ZM1923.42 910.539 1930.76 910.539 1930.76 957.348 1953.9 957.348 1953.9 963.508 1923.42 963.508Z" stroke="#767171" stroke-width="3" stroke-linejoin="round" stroke-miterlimit="10" fill-rule="evenodd"/><text fill="#000000" fill-opacity="0" font-family="Arial,Arial_MSFontService,sans-serif" font-size="53.6987" x="1923.42" y="957.525">Lucas</text></g></svg>